<mxfile host="Electron" modified="2023-04-20T23:19:00.944Z" agent="Mozilla/5.0 (Windows NT 10.0; Win64; x64) AppleWebKit/537.36 (KHTML, like Gecko) draw.io/21.2.1 Chrome/112.0.5615.87 Electron/24.1.2 Safari/537.36" etag="Sbx42XgxH1FmQ0Q-I_B3" version="21.2.1" type="device">
  <diagram id="C5RBs43oDa-KdzZeNtuy" name="Page-1">
    <mxGraphModel dx="1368" dy="1750" grid="1" gridSize="10" guides="1" tooltips="1" connect="1" arrows="1" fold="1" page="1" pageScale="1" pageWidth="827" pageHeight="1169" math="0" shadow="0">
      <root>
        <mxCell id="WIyWlLk6GJQsqaUBKTNV-0" />
        <mxCell id="WIyWlLk6GJQsqaUBKTNV-1" parent="WIyWlLk6GJQsqaUBKTNV-0" />
        <mxCell id="0bH0IYxI4oXOzt830pxc-4" style="edgeStyle=orthogonalEdgeStyle;rounded=0;orthogonalLoop=1;jettySize=auto;html=1;exitX=0.5;exitY=1;exitDx=0;exitDy=0;exitPerimeter=0;entryX=0.5;entryY=0;entryDx=0;entryDy=0;" edge="1" parent="WIyWlLk6GJQsqaUBKTNV-1" source="0bH0IYxI4oXOzt830pxc-0" target="0bH0IYxI4oXOzt830pxc-2">
          <mxGeometry relative="1" as="geometry" />
        </mxCell>
        <mxCell id="0bH0IYxI4oXOzt830pxc-0" value="Inicio" style="strokeWidth=2;html=1;shape=mxgraph.flowchart.start_1;whiteSpace=wrap;" vertex="1" parent="WIyWlLk6GJQsqaUBKTNV-1">
          <mxGeometry x="220" y="100" width="100" height="60" as="geometry" />
        </mxCell>
        <mxCell id="0bH0IYxI4oXOzt830pxc-1" value="Final" style="strokeWidth=2;html=1;shape=mxgraph.flowchart.start_1;whiteSpace=wrap;" vertex="1" parent="WIyWlLk6GJQsqaUBKTNV-1">
          <mxGeometry x="567" y="710" width="100" height="60" as="geometry" />
        </mxCell>
        <mxCell id="0bH0IYxI4oXOzt830pxc-9" style="edgeStyle=orthogonalEdgeStyle;rounded=0;orthogonalLoop=1;jettySize=auto;html=1;exitX=0.5;exitY=1;exitDx=0;exitDy=0;entryX=0.5;entryY=0;entryDx=0;entryDy=0;" edge="1" parent="WIyWlLk6GJQsqaUBKTNV-1" source="0bH0IYxI4oXOzt830pxc-2" target="0bH0IYxI4oXOzt830pxc-8">
          <mxGeometry relative="1" as="geometry" />
        </mxCell>
        <mxCell id="0bH0IYxI4oXOzt830pxc-2" value="deptos, pisos, edificio,&lt;br&gt;l,c,L,A,F,Z,X,V,P, PL, PC,&lt;br&gt;PCE,PP,PPU,PV,PCA,PS,PM" style="shape=parallelogram;html=1;strokeWidth=2;perimeter=parallelogramPerimeter;whiteSpace=wrap;rounded=1;arcSize=12;size=0.23;" vertex="1" parent="WIyWlLk6GJQsqaUBKTNV-1">
          <mxGeometry x="150" y="200" width="240" height="60" as="geometry" />
        </mxCell>
        <mxCell id="0bH0IYxI4oXOzt830pxc-12" style="edgeStyle=orthogonalEdgeStyle;rounded=0;orthogonalLoop=1;jettySize=auto;html=1;exitX=0.5;exitY=1;exitDx=0;exitDy=0;entryX=0.5;entryY=0;entryDx=0;entryDy=0;" edge="1" parent="WIyWlLk6GJQsqaUBKTNV-1" source="0bH0IYxI4oXOzt830pxc-8" target="0bH0IYxI4oXOzt830pxc-13">
          <mxGeometry relative="1" as="geometry">
            <mxPoint x="270" y="380" as="targetPoint" />
          </mxGeometry>
        </mxCell>
        <mxCell id="0bH0IYxI4oXOzt830pxc-8" value="sup_cer = (L * A )* 0.01" style="rounded=1;whiteSpace=wrap;html=1;absoluteArcSize=1;arcSize=14;strokeWidth=2;" vertex="1" parent="WIyWlLk6GJQsqaUBKTNV-1">
          <mxGeometry x="205" y="290" width="130" height="60" as="geometry" />
        </mxCell>
        <mxCell id="0bH0IYxI4oXOzt830pxc-17" style="edgeStyle=orthogonalEdgeStyle;rounded=0;orthogonalLoop=1;jettySize=auto;html=1;exitX=0.5;exitY=1;exitDx=0;exitDy=0;entryX=0.5;entryY=0;entryDx=0;entryDy=0;" edge="1" parent="WIyWlLk6GJQsqaUBKTNV-1" source="0bH0IYxI4oXOzt830pxc-13" target="0bH0IYxI4oXOzt830pxc-16">
          <mxGeometry relative="1" as="geometry" />
        </mxCell>
        <mxCell id="0bH0IYxI4oXOzt830pxc-13" value="departamento" style="rounded=1;whiteSpace=wrap;html=1;absoluteArcSize=1;arcSize=14;strokeWidth=2;" vertex="1" parent="WIyWlLk6GJQsqaUBKTNV-1">
          <mxGeometry x="220" y="380" width="100" height="60" as="geometry" />
        </mxCell>
        <mxCell id="0bH0IYxI4oXOzt830pxc-14" value="&lt;font style=&quot;font-size: 14px;&quot;&gt;--&amp;gt; clase&lt;/font&gt;" style="text;html=1;align=center;verticalAlign=middle;resizable=0;points=[];autosize=1;strokeColor=none;fillColor=none;" vertex="1" parent="WIyWlLk6GJQsqaUBKTNV-1">
          <mxGeometry x="330" y="395" width="80" height="30" as="geometry" />
        </mxCell>
        <mxCell id="0bH0IYxI4oXOzt830pxc-19" style="edgeStyle=orthogonalEdgeStyle;rounded=0;orthogonalLoop=1;jettySize=auto;html=1;exitX=0.5;exitY=1;exitDx=0;exitDy=0;entryX=0.5;entryY=0;entryDx=0;entryDy=0;" edge="1" parent="WIyWlLk6GJQsqaUBKTNV-1" source="0bH0IYxI4oXOzt830pxc-16" target="0bH0IYxI4oXOzt830pxc-18">
          <mxGeometry relative="1" as="geometry" />
        </mxCell>
        <mxCell id="0bH0IYxI4oXOzt830pxc-16" value="MENU GESTOR DE COSTOS" style="shape=parallelogram;html=1;strokeWidth=2;perimeter=parallelogramPerimeter;whiteSpace=wrap;rounded=1;arcSize=12;size=0.23;" vertex="1" parent="WIyWlLk6GJQsqaUBKTNV-1">
          <mxGeometry x="190" y="482" width="160" height="90" as="geometry" />
        </mxCell>
        <mxCell id="0bH0IYxI4oXOzt830pxc-21" style="edgeStyle=orthogonalEdgeStyle;rounded=0;orthogonalLoop=1;jettySize=auto;html=1;exitX=0.5;exitY=1;exitDx=0;exitDy=0;entryX=0.5;entryY=0;entryDx=0;entryDy=0;entryPerimeter=0;" edge="1" parent="WIyWlLk6GJQsqaUBKTNV-1" source="0bH0IYxI4oXOzt830pxc-18" target="0bH0IYxI4oXOzt830pxc-20">
          <mxGeometry relative="1" as="geometry" />
        </mxCell>
        <mxCell id="0bH0IYxI4oXOzt830pxc-18" value="opcion" style="rounded=1;whiteSpace=wrap;html=1;absoluteArcSize=1;arcSize=14;strokeWidth=2;" vertex="1" parent="WIyWlLk6GJQsqaUBKTNV-1">
          <mxGeometry x="235" y="600" width="70" height="60" as="geometry" />
        </mxCell>
        <mxCell id="0bH0IYxI4oXOzt830pxc-25" style="edgeStyle=orthogonalEdgeStyle;rounded=0;orthogonalLoop=1;jettySize=auto;html=1;exitX=0.5;exitY=1;exitDx=0;exitDy=0;exitPerimeter=0;entryX=0.5;entryY=0;entryDx=0;entryDy=0;entryPerimeter=0;" edge="1" parent="WIyWlLk6GJQsqaUBKTNV-1" source="0bH0IYxI4oXOzt830pxc-20" target="0bH0IYxI4oXOzt830pxc-24">
          <mxGeometry relative="1" as="geometry" />
        </mxCell>
        <mxCell id="0bH0IYxI4oXOzt830pxc-103" style="edgeStyle=orthogonalEdgeStyle;rounded=0;orthogonalLoop=1;jettySize=auto;html=1;exitX=1;exitY=0.5;exitDx=0;exitDy=0;exitPerimeter=0;entryX=0;entryY=0.5;entryDx=0;entryDy=0;" edge="1" parent="WIyWlLk6GJQsqaUBKTNV-1" source="0bH0IYxI4oXOzt830pxc-20" target="0bH0IYxI4oXOzt830pxc-27">
          <mxGeometry relative="1" as="geometry" />
        </mxCell>
        <mxCell id="0bH0IYxI4oXOzt830pxc-20" value="opcion == 0" style="strokeWidth=2;html=1;shape=mxgraph.flowchart.decision;whiteSpace=wrap;" vertex="1" parent="WIyWlLk6GJQsqaUBKTNV-1">
          <mxGeometry x="220" y="690" width="100" height="100" as="geometry" />
        </mxCell>
        <mxCell id="0bH0IYxI4oXOzt830pxc-64" style="edgeStyle=orthogonalEdgeStyle;rounded=0;orthogonalLoop=1;jettySize=auto;html=1;exitX=1;exitY=0.5;exitDx=0;exitDy=0;exitPerimeter=0;entryX=0.5;entryY=0;entryDx=0;entryDy=0;" edge="1" parent="WIyWlLk6GJQsqaUBKTNV-1" source="0bH0IYxI4oXOzt830pxc-24" target="0bH0IYxI4oXOzt830pxc-30">
          <mxGeometry relative="1" as="geometry">
            <Array as="points">
              <mxPoint x="537" y="880" />
            </Array>
          </mxGeometry>
        </mxCell>
        <mxCell id="0bH0IYxI4oXOzt830pxc-81" style="edgeStyle=orthogonalEdgeStyle;rounded=0;orthogonalLoop=1;jettySize=auto;html=1;exitX=0.5;exitY=1;exitDx=0;exitDy=0;exitPerimeter=0;entryX=0.5;entryY=0;entryDx=0;entryDy=0;entryPerimeter=0;" edge="1" parent="WIyWlLk6GJQsqaUBKTNV-1" source="0bH0IYxI4oXOzt830pxc-24" target="0bH0IYxI4oXOzt830pxc-80">
          <mxGeometry relative="1" as="geometry" />
        </mxCell>
        <mxCell id="0bH0IYxI4oXOzt830pxc-24" value="opcion == 1" style="strokeWidth=2;html=1;shape=mxgraph.flowchart.decision;whiteSpace=wrap;" vertex="1" parent="WIyWlLk6GJQsqaUBKTNV-1">
          <mxGeometry x="220" y="830" width="100" height="100" as="geometry" />
        </mxCell>
        <mxCell id="0bH0IYxI4oXOzt830pxc-29" style="edgeStyle=orthogonalEdgeStyle;rounded=0;orthogonalLoop=1;jettySize=auto;html=1;exitX=1;exitY=0.5;exitDx=0;exitDy=0;entryX=0;entryY=0.5;entryDx=0;entryDy=0;entryPerimeter=0;" edge="1" parent="WIyWlLk6GJQsqaUBKTNV-1" source="0bH0IYxI4oXOzt830pxc-27" target="0bH0IYxI4oXOzt830pxc-1">
          <mxGeometry relative="1" as="geometry" />
        </mxCell>
        <mxCell id="0bH0IYxI4oXOzt830pxc-27" value="Ha salido" style="shape=parallelogram;html=1;strokeWidth=2;perimeter=parallelogramPerimeter;whiteSpace=wrap;rounded=1;arcSize=12;size=0.23;" vertex="1" parent="WIyWlLk6GJQsqaUBKTNV-1">
          <mxGeometry x="427" y="710" width="100" height="60" as="geometry" />
        </mxCell>
        <mxCell id="0bH0IYxI4oXOzt830pxc-33" style="edgeStyle=orthogonalEdgeStyle;rounded=0;orthogonalLoop=1;jettySize=auto;html=1;exitX=0.5;exitY=1;exitDx=0;exitDy=0;entryX=0.5;entryY=0;entryDx=0;entryDy=0;entryPerimeter=0;" edge="1" parent="WIyWlLk6GJQsqaUBKTNV-1" source="0bH0IYxI4oXOzt830pxc-50" target="0bH0IYxI4oXOzt830pxc-32">
          <mxGeometry relative="1" as="geometry" />
        </mxCell>
        <mxCell id="0bH0IYxI4oXOzt830pxc-53" style="edgeStyle=orthogonalEdgeStyle;rounded=0;orthogonalLoop=1;jettySize=auto;html=1;exitX=0.5;exitY=1;exitDx=0;exitDy=0;entryX=0.5;entryY=0;entryDx=0;entryDy=0;" edge="1" parent="WIyWlLk6GJQsqaUBKTNV-1" source="0bH0IYxI4oXOzt830pxc-30" target="0bH0IYxI4oXOzt830pxc-50">
          <mxGeometry relative="1" as="geometry" />
        </mxCell>
        <mxCell id="0bH0IYxI4oXOzt830pxc-30" value="edificio, piso, &lt;br&gt;departamento, &lt;br&gt;mtr2, mtrs2_pared" style="shape=parallelogram;html=1;strokeWidth=2;perimeter=parallelogramPerimeter;whiteSpace=wrap;rounded=1;arcSize=12;size=0.23;" vertex="1" parent="WIyWlLk6GJQsqaUBKTNV-1">
          <mxGeometry x="457" y="899" width="160" height="90" as="geometry" />
        </mxCell>
        <mxCell id="0bH0IYxI4oXOzt830pxc-37" style="edgeStyle=orthogonalEdgeStyle;rounded=0;orthogonalLoop=1;jettySize=auto;html=1;exitX=1;exitY=0.5;exitDx=0;exitDy=0;exitPerimeter=0;entryX=0.5;entryY=1;entryDx=0;entryDy=0;" edge="1" parent="WIyWlLk6GJQsqaUBKTNV-1" source="0bH0IYxI4oXOzt830pxc-32" target="0bH0IYxI4oXOzt830pxc-35">
          <mxGeometry relative="1" as="geometry" />
        </mxCell>
        <mxCell id="0bH0IYxI4oXOzt830pxc-47" style="edgeStyle=orthogonalEdgeStyle;rounded=0;orthogonalLoop=1;jettySize=auto;html=1;exitX=0.5;exitY=1;exitDx=0;exitDy=0;exitPerimeter=0;entryX=0.5;entryY=0;entryDx=0;entryDy=0;" edge="1" parent="WIyWlLk6GJQsqaUBKTNV-1" source="0bH0IYxI4oXOzt830pxc-55" target="0bH0IYxI4oXOzt830pxc-46">
          <mxGeometry relative="1" as="geometry" />
        </mxCell>
        <mxCell id="0bH0IYxI4oXOzt830pxc-32" value="ed == deptos[i].edificio &lt;br&gt;and &lt;br&gt;pi == deptos[i].piso &lt;br&gt;and &lt;br&gt;nro == deptos[i].nro" style="strokeWidth=2;html=1;shape=mxgraph.flowchart.decision;whiteSpace=wrap;" vertex="1" parent="WIyWlLk6GJQsqaUBKTNV-1">
          <mxGeometry x="437" y="1093" width="200" height="170" as="geometry" />
        </mxCell>
        <mxCell id="0bH0IYxI4oXOzt830pxc-60" style="edgeStyle=orthogonalEdgeStyle;rounded=0;orthogonalLoop=1;jettySize=auto;html=1;exitX=0.5;exitY=0;exitDx=0;exitDy=0;" edge="1" parent="WIyWlLk6GJQsqaUBKTNV-1" source="0bH0IYxI4oXOzt830pxc-35">
          <mxGeometry relative="1" as="geometry">
            <mxPoint x="537" y="890" as="targetPoint" />
            <Array as="points">
              <mxPoint x="657" y="890" />
            </Array>
          </mxGeometry>
        </mxCell>
        <mxCell id="0bH0IYxI4oXOzt830pxc-35" value="Reintente" style="shape=parallelogram;html=1;strokeWidth=2;perimeter=parallelogramPerimeter;whiteSpace=wrap;rounded=1;arcSize=12;size=0.23;" vertex="1" parent="WIyWlLk6GJQsqaUBKTNV-1">
          <mxGeometry x="607" y="986" width="100" height="60" as="geometry" />
        </mxCell>
        <mxCell id="0bH0IYxI4oXOzt830pxc-40" value="si" style="text;html=1;align=center;verticalAlign=middle;resizable=0;points=[];autosize=1;strokeColor=none;fillColor=none;" vertex="1" parent="WIyWlLk6GJQsqaUBKTNV-1">
          <mxGeometry x="627" y="1153" width="30" height="30" as="geometry" />
        </mxCell>
        <mxCell id="0bH0IYxI4oXOzt830pxc-41" value="no" style="text;html=1;align=center;verticalAlign=middle;resizable=0;points=[];autosize=1;strokeColor=none;fillColor=none;" vertex="1" parent="WIyWlLk6GJQsqaUBKTNV-1">
          <mxGeometry x="537" y="1253" width="40" height="30" as="geometry" />
        </mxCell>
        <mxCell id="0bH0IYxI4oXOzt830pxc-42" value="no" style="text;html=1;align=center;verticalAlign=middle;resizable=0;points=[];autosize=1;strokeColor=none;fillColor=none;" vertex="1" parent="WIyWlLk6GJQsqaUBKTNV-1">
          <mxGeometry x="270" y="910" width="40" height="30" as="geometry" />
        </mxCell>
        <mxCell id="0bH0IYxI4oXOzt830pxc-43" value="si" style="text;html=1;align=center;verticalAlign=middle;resizable=0;points=[];autosize=1;strokeColor=none;fillColor=none;" vertex="1" parent="WIyWlLk6GJQsqaUBKTNV-1">
          <mxGeometry x="310" y="850" width="30" height="30" as="geometry" />
        </mxCell>
        <mxCell id="0bH0IYxI4oXOzt830pxc-44" value="si" style="text;html=1;align=center;verticalAlign=middle;resizable=0;points=[];autosize=1;strokeColor=none;fillColor=none;" vertex="1" parent="WIyWlLk6GJQsqaUBKTNV-1">
          <mxGeometry x="320" y="710" width="30" height="30" as="geometry" />
        </mxCell>
        <mxCell id="0bH0IYxI4oXOzt830pxc-45" value="no" style="text;html=1;align=center;verticalAlign=middle;resizable=0;points=[];autosize=1;strokeColor=none;fillColor=none;" vertex="1" parent="WIyWlLk6GJQsqaUBKTNV-1">
          <mxGeometry x="270" y="770" width="40" height="30" as="geometry" />
        </mxCell>
        <mxCell id="0bH0IYxI4oXOzt830pxc-63" value="" style="edgeStyle=orthogonalEdgeStyle;rounded=0;orthogonalLoop=1;jettySize=auto;html=1;" edge="1" parent="WIyWlLk6GJQsqaUBKTNV-1" source="0bH0IYxI4oXOzt830pxc-46" target="0bH0IYxI4oXOzt830pxc-61">
          <mxGeometry relative="1" as="geometry" />
        </mxCell>
        <mxCell id="0bH0IYxI4oXOzt830pxc-46" value="&lt;div&gt;depto = departamento(ed, pi, nro, mts, mtspar)&lt;/div&gt;&lt;div&gt;depto.calcular()&lt;/div&gt;&lt;div&gt;deptos.append(depto)&lt;/div&gt;" style="rounded=1;whiteSpace=wrap;html=1;absoluteArcSize=1;arcSize=14;strokeWidth=2;align=center;" vertex="1" parent="WIyWlLk6GJQsqaUBKTNV-1">
          <mxGeometry x="387" y="1470" width="300" height="60" as="geometry" />
        </mxCell>
        <mxCell id="0bH0IYxI4oXOzt830pxc-50" value="i = 0" style="rounded=1;whiteSpace=wrap;html=1;absoluteArcSize=1;arcSize=14;strokeWidth=2;align=center;" vertex="1" parent="WIyWlLk6GJQsqaUBKTNV-1">
          <mxGeometry x="501" y="1023" width="70" height="44" as="geometry" />
        </mxCell>
        <mxCell id="0bH0IYxI4oXOzt830pxc-54" value="" style="edgeStyle=orthogonalEdgeStyle;rounded=0;orthogonalLoop=1;jettySize=auto;html=1;exitX=0.5;exitY=1;exitDx=0;exitDy=0;exitPerimeter=0;entryX=0.5;entryY=0;entryDx=0;entryDy=0;" edge="1" parent="WIyWlLk6GJQsqaUBKTNV-1" source="0bH0IYxI4oXOzt830pxc-32" target="0bH0IYxI4oXOzt830pxc-48">
          <mxGeometry relative="1" as="geometry">
            <mxPoint x="537" y="1263" as="sourcePoint" />
            <mxPoint x="537" y="1365" as="targetPoint" />
          </mxGeometry>
        </mxCell>
        <mxCell id="0bH0IYxI4oXOzt830pxc-48" value="&lt;div&gt;i += 1&lt;/div&gt;" style="rounded=1;whiteSpace=wrap;html=1;absoluteArcSize=1;arcSize=14;strokeWidth=2;align=center;" vertex="1" parent="WIyWlLk6GJQsqaUBKTNV-1">
          <mxGeometry x="502" y="1290" width="70" height="44" as="geometry" />
        </mxCell>
        <mxCell id="0bH0IYxI4oXOzt830pxc-56" value="" style="edgeStyle=orthogonalEdgeStyle;rounded=0;orthogonalLoop=1;jettySize=auto;html=1;exitX=0.5;exitY=1;exitDx=0;exitDy=0;exitPerimeter=0;entryX=0.5;entryY=0;entryDx=0;entryDy=0;" edge="1" parent="WIyWlLk6GJQsqaUBKTNV-1" source="0bH0IYxI4oXOzt830pxc-48" target="0bH0IYxI4oXOzt830pxc-55">
          <mxGeometry relative="1" as="geometry">
            <mxPoint x="537" y="1334" as="sourcePoint" />
            <mxPoint x="537" y="1470" as="targetPoint" />
          </mxGeometry>
        </mxCell>
        <mxCell id="0bH0IYxI4oXOzt830pxc-57" style="edgeStyle=orthogonalEdgeStyle;rounded=0;orthogonalLoop=1;jettySize=auto;html=1;exitX=0;exitY=0.5;exitDx=0;exitDy=0;exitPerimeter=0;" edge="1" parent="WIyWlLk6GJQsqaUBKTNV-1" source="0bH0IYxI4oXOzt830pxc-55">
          <mxGeometry relative="1" as="geometry">
            <mxPoint x="537" y="1080" as="targetPoint" />
            <Array as="points">
              <mxPoint x="417" y="1400" />
              <mxPoint x="417" y="1080" />
            </Array>
          </mxGeometry>
        </mxCell>
        <mxCell id="0bH0IYxI4oXOzt830pxc-55" value="i != len(pisos)" style="strokeWidth=2;html=1;shape=mxgraph.flowchart.decision;whiteSpace=wrap;" vertex="1" parent="WIyWlLk6GJQsqaUBKTNV-1">
          <mxGeometry x="486" y="1350" width="100" height="100" as="geometry" />
        </mxCell>
        <mxCell id="0bH0IYxI4oXOzt830pxc-58" value="si" style="text;html=1;align=center;verticalAlign=middle;resizable=0;points=[];autosize=1;strokeColor=none;fillColor=none;" vertex="1" parent="WIyWlLk6GJQsqaUBKTNV-1">
          <mxGeometry x="461" y="1370" width="30" height="30" as="geometry" />
        </mxCell>
        <mxCell id="0bH0IYxI4oXOzt830pxc-59" value="no" style="text;html=1;align=center;verticalAlign=middle;resizable=0;points=[];autosize=1;strokeColor=none;fillColor=none;" vertex="1" parent="WIyWlLk6GJQsqaUBKTNV-1">
          <mxGeometry x="546" y="1430" width="40" height="30" as="geometry" />
        </mxCell>
        <mxCell id="0bH0IYxI4oXOzt830pxc-65" style="edgeStyle=orthogonalEdgeStyle;rounded=0;orthogonalLoop=1;jettySize=auto;html=1;exitX=0.5;exitY=1;exitDx=0;exitDy=0;" edge="1" parent="WIyWlLk6GJQsqaUBKTNV-1" source="0bH0IYxI4oXOzt830pxc-61">
          <mxGeometry relative="1" as="geometry">
            <mxPoint x="624.4117647058824" y="1890" as="targetPoint" />
          </mxGeometry>
        </mxCell>
        <mxCell id="0bH0IYxI4oXOzt830pxc-61" value="&lt;div&gt;x = [&quot;materiales&quot;, &quot;aberturas&quot;, &quot;muebles&quot;, &quot;depto&quot;]&lt;/div&gt;&lt;div&gt;code = str(depto.edificio) + &quot;.&quot; + str(depto.piso)&amp;nbsp; # clave para identificar en el diccionario&lt;/div&gt;&lt;div&gt;&lt;br&gt;&lt;/div&gt;&lt;div&gt;if code in pisos:&lt;/div&gt;&lt;div&gt;&amp;nbsp; &amp;nbsp; &amp;nbsp;aux = {}&lt;/div&gt;&lt;div&gt;&amp;nbsp; &amp;nbsp; &amp;nbsp;i = 0&lt;/div&gt;&lt;div&gt;&amp;nbsp; &amp;nbsp; &amp;nbsp;for j in pisos[code]:&lt;/div&gt;&lt;div&gt;&amp;nbsp; &amp;nbsp; &amp;nbsp; &amp;nbsp; &amp;nbsp; num = pisos[code][j] + depto.costos_dpto[x[i]]&lt;/div&gt;&lt;div&gt;&amp;nbsp; &amp;nbsp; &amp;nbsp; &amp;nbsp; &amp;nbsp; aux[x[i]] = num&lt;/div&gt;&lt;div&gt;&amp;nbsp; &amp;nbsp; &amp;nbsp; &amp;nbsp; &amp;nbsp; &amp;nbsp;i += 1&lt;/div&gt;&lt;div&gt;&amp;nbsp; &amp;nbsp; &amp;nbsp; &amp;nbsp; &amp;nbsp; &amp;nbsp;pisos[code] = aux&lt;/div&gt;&lt;div&gt;# si no existe crea un par clave-valor nuevo&lt;/div&gt;&lt;div&gt;else:&lt;/div&gt;&lt;div&gt;&amp;nbsp; &amp;nbsp; &amp;nbsp;pisos[code] = depto.costos_dpto&lt;/div&gt;" style="rounded=1;whiteSpace=wrap;html=1;absoluteArcSize=1;arcSize=14;strokeWidth=2;align=left;" vertex="1" parent="WIyWlLk6GJQsqaUBKTNV-1">
          <mxGeometry x="382" y="1560" width="485" height="280" as="geometry" />
        </mxCell>
        <mxCell id="0bH0IYxI4oXOzt830pxc-69" style="edgeStyle=orthogonalEdgeStyle;rounded=0;orthogonalLoop=1;jettySize=auto;html=1;exitX=0.5;exitY=1;exitDx=0;exitDy=0;entryX=0.5;entryY=0;entryDx=0;entryDy=0;" edge="1" parent="WIyWlLk6GJQsqaUBKTNV-1" source="0bH0IYxI4oXOzt830pxc-66" target="0bH0IYxI4oXOzt830pxc-67">
          <mxGeometry relative="1" as="geometry" />
        </mxCell>
        <mxCell id="0bH0IYxI4oXOzt830pxc-66" value="&lt;div&gt;costo_edi = depto.costos_dpto&lt;/div&gt;&lt;div&gt;&amp;nbsp; &amp;nbsp; &amp;nbsp; &amp;nbsp; &amp;nbsp; &amp;nbsp; &amp;nbsp; &amp;nbsp; &amp;nbsp; &amp;nbsp; &amp;nbsp; &amp;nbsp; &amp;nbsp; &amp;nbsp; key = depto.edificio&lt;/div&gt;&lt;div&gt;&amp;nbsp; &amp;nbsp; &amp;nbsp; &amp;nbsp; &amp;nbsp; &amp;nbsp; &amp;nbsp; &amp;nbsp; &amp;nbsp; &amp;nbsp; &amp;nbsp; &amp;nbsp; &amp;nbsp; &amp;nbsp; if key in edificio:&lt;/div&gt;&lt;div&gt;&amp;nbsp; &amp;nbsp; &amp;nbsp; &amp;nbsp; &amp;nbsp; &amp;nbsp; &amp;nbsp; &amp;nbsp; &amp;nbsp; &amp;nbsp; &amp;nbsp; &amp;nbsp; &amp;nbsp; &amp;nbsp; &amp;nbsp; &amp;nbsp; aux = {}&lt;/div&gt;&lt;div&gt;&amp;nbsp; &amp;nbsp; &amp;nbsp; &amp;nbsp; &amp;nbsp; &amp;nbsp; &amp;nbsp; &amp;nbsp; &amp;nbsp; &amp;nbsp; &amp;nbsp; &amp;nbsp; &amp;nbsp; &amp;nbsp; &amp;nbsp; &amp;nbsp; i = 0&lt;/div&gt;&lt;div&gt;&amp;nbsp; &amp;nbsp; &amp;nbsp; &amp;nbsp; &amp;nbsp; &amp;nbsp; &amp;nbsp; &amp;nbsp; &amp;nbsp; &amp;nbsp; &amp;nbsp; &amp;nbsp; &amp;nbsp; &amp;nbsp; &amp;nbsp; &amp;nbsp; for piso in edificio[key]:&lt;/div&gt;&lt;div&gt;&amp;nbsp; &amp;nbsp; &amp;nbsp; &amp;nbsp; &amp;nbsp; &amp;nbsp; &amp;nbsp; &amp;nbsp; &amp;nbsp; &amp;nbsp; &amp;nbsp; &amp;nbsp; &amp;nbsp; &amp;nbsp; &amp;nbsp; &amp;nbsp; &amp;nbsp; &amp;nbsp; num = edificio[key][piso] + costo_edi[x[i]]&lt;/div&gt;&lt;div&gt;&amp;nbsp; &amp;nbsp; &amp;nbsp; &amp;nbsp; &amp;nbsp; &amp;nbsp; &amp;nbsp; &amp;nbsp; &amp;nbsp; &amp;nbsp; &amp;nbsp; &amp;nbsp; &amp;nbsp; &amp;nbsp; &amp;nbsp; &amp;nbsp; &amp;nbsp; &amp;nbsp; aux[x[i]] = num&lt;/div&gt;&lt;div&gt;&amp;nbsp; &amp;nbsp; &amp;nbsp; &amp;nbsp; &amp;nbsp; &amp;nbsp; &amp;nbsp; &amp;nbsp; &amp;nbsp; &amp;nbsp; &amp;nbsp; &amp;nbsp; &amp;nbsp; &amp;nbsp; &amp;nbsp; &amp;nbsp; &amp;nbsp; &amp;nbsp; i += 1&lt;/div&gt;&lt;div&gt;&amp;nbsp; &amp;nbsp; &amp;nbsp; &amp;nbsp; &amp;nbsp; &amp;nbsp; &amp;nbsp; &amp;nbsp; &amp;nbsp; &amp;nbsp; &amp;nbsp; &amp;nbsp; &amp;nbsp; &amp;nbsp; &amp;nbsp; &amp;nbsp; edificio[key] = aux&lt;/div&gt;&lt;div&gt;&amp;nbsp; &amp;nbsp; &amp;nbsp; &amp;nbsp; &amp;nbsp; &amp;nbsp; &amp;nbsp; &amp;nbsp; &amp;nbsp; &amp;nbsp; &amp;nbsp; &amp;nbsp; &amp;nbsp; &amp;nbsp; # si no existe crea un par clave-valor nuevo&lt;/div&gt;&lt;div&gt;&amp;nbsp; &amp;nbsp; &amp;nbsp; &amp;nbsp; &amp;nbsp; &amp;nbsp; &amp;nbsp; &amp;nbsp; &amp;nbsp; &amp;nbsp; &amp;nbsp; &amp;nbsp; &amp;nbsp; &amp;nbsp; else:&lt;/div&gt;&lt;div&gt;&amp;nbsp; &amp;nbsp; &amp;nbsp; &amp;nbsp; &amp;nbsp; &amp;nbsp; &amp;nbsp; &amp;nbsp; &amp;nbsp; &amp;nbsp; &amp;nbsp; &amp;nbsp; &amp;nbsp; &amp;nbsp; &amp;nbsp; &amp;nbsp; edificio[key] = costo_edi&lt;/div&gt;" style="rounded=1;whiteSpace=wrap;html=1;absoluteArcSize=1;arcSize=14;strokeWidth=2;align=left;" vertex="1" parent="WIyWlLk6GJQsqaUBKTNV-1">
          <mxGeometry x="382" y="1870" width="485" height="200" as="geometry" />
        </mxCell>
        <mxCell id="0bH0IYxI4oXOzt830pxc-76" style="edgeStyle=orthogonalEdgeStyle;rounded=0;orthogonalLoop=1;jettySize=auto;html=1;exitX=0.5;exitY=1;exitDx=0;exitDy=0;entryX=0.5;entryY=0;entryDx=0;entryDy=0;entryPerimeter=0;" edge="1" parent="WIyWlLk6GJQsqaUBKTNV-1" source="0bH0IYxI4oXOzt830pxc-67" target="0bH0IYxI4oXOzt830pxc-70">
          <mxGeometry relative="1" as="geometry" />
        </mxCell>
        <mxCell id="0bH0IYxI4oXOzt830pxc-67" value="x&amp;nbsp;" style="rounded=1;whiteSpace=wrap;html=1;absoluteArcSize=1;arcSize=14;strokeWidth=2;align=center;" vertex="1" parent="WIyWlLk6GJQsqaUBKTNV-1">
          <mxGeometry x="539.5" y="2100" width="170" height="60" as="geometry" />
        </mxCell>
        <mxCell id="0bH0IYxI4oXOzt830pxc-72" style="edgeStyle=orthogonalEdgeStyle;rounded=0;orthogonalLoop=1;jettySize=auto;html=1;exitX=1;exitY=0.5;exitDx=0;exitDy=0;exitPerimeter=0;" edge="1" parent="WIyWlLk6GJQsqaUBKTNV-1" source="0bH0IYxI4oXOzt830pxc-70">
          <mxGeometry relative="1" as="geometry">
            <mxPoint x="272.3529411764706" y="449.99999999999955" as="targetPoint" />
            <Array as="points">
              <mxPoint x="1020" y="2240" />
              <mxPoint x="1020" y="450" />
            </Array>
          </mxGeometry>
        </mxCell>
        <mxCell id="0bH0IYxI4oXOzt830pxc-75" style="edgeStyle=orthogonalEdgeStyle;rounded=0;orthogonalLoop=1;jettySize=auto;html=1;exitX=0.5;exitY=1;exitDx=0;exitDy=0;exitPerimeter=0;entryX=0.5;entryY=0;entryDx=0;entryDy=0;entryPerimeter=0;" edge="1" parent="WIyWlLk6GJQsqaUBKTNV-1" source="0bH0IYxI4oXOzt830pxc-70" target="0bH0IYxI4oXOzt830pxc-74">
          <mxGeometry relative="1" as="geometry" />
        </mxCell>
        <mxCell id="0bH0IYxI4oXOzt830pxc-70" value="x == 0" style="strokeWidth=2;html=1;shape=mxgraph.flowchart.decision;whiteSpace=wrap;" vertex="1" parent="WIyWlLk6GJQsqaUBKTNV-1">
          <mxGeometry x="574.5" y="2190" width="100" height="100" as="geometry" />
        </mxCell>
        <mxCell id="0bH0IYxI4oXOzt830pxc-71" value="si" style="text;html=1;align=center;verticalAlign=middle;resizable=0;points=[];autosize=1;strokeColor=none;fillColor=none;" vertex="1" parent="WIyWlLk6GJQsqaUBKTNV-1">
          <mxGeometry x="674.5" y="2200" width="30" height="30" as="geometry" />
        </mxCell>
        <mxCell id="0bH0IYxI4oXOzt830pxc-73" value="no" style="text;html=1;align=center;verticalAlign=middle;resizable=0;points=[];autosize=1;strokeColor=none;fillColor=none;" vertex="1" parent="WIyWlLk6GJQsqaUBKTNV-1">
          <mxGeometry x="627" y="2270" width="40" height="30" as="geometry" />
        </mxCell>
        <mxCell id="0bH0IYxI4oXOzt830pxc-77" style="edgeStyle=orthogonalEdgeStyle;rounded=0;orthogonalLoop=1;jettySize=auto;html=1;exitX=1;exitY=0.5;exitDx=0;exitDy=0;exitPerimeter=0;" edge="1" parent="WIyWlLk6GJQsqaUBKTNV-1" source="0bH0IYxI4oXOzt830pxc-74">
          <mxGeometry relative="1" as="geometry">
            <mxPoint x="540" y="880" as="targetPoint" />
            <Array as="points">
              <mxPoint x="980" y="2380" />
              <mxPoint x="980" y="880" />
              <mxPoint x="540" y="880" />
            </Array>
          </mxGeometry>
        </mxCell>
        <mxCell id="0bH0IYxI4oXOzt830pxc-79" style="edgeStyle=orthogonalEdgeStyle;rounded=0;orthogonalLoop=1;jettySize=auto;html=1;exitX=0.5;exitY=1;exitDx=0;exitDy=0;exitPerimeter=0;" edge="1" parent="WIyWlLk6GJQsqaUBKTNV-1" source="0bH0IYxI4oXOzt830pxc-74">
          <mxGeometry relative="1" as="geometry">
            <mxPoint x="1020" y="2230" as="targetPoint" />
          </mxGeometry>
        </mxCell>
        <mxCell id="0bH0IYxI4oXOzt830pxc-74" value="x == 1" style="strokeWidth=2;html=1;shape=mxgraph.flowchart.decision;whiteSpace=wrap;" vertex="1" parent="WIyWlLk6GJQsqaUBKTNV-1">
          <mxGeometry x="574.5" y="2330" width="100" height="100" as="geometry" />
        </mxCell>
        <mxCell id="0bH0IYxI4oXOzt830pxc-78" value="si" style="text;html=1;align=center;verticalAlign=middle;resizable=0;points=[];autosize=1;strokeColor=none;fillColor=none;" vertex="1" parent="WIyWlLk6GJQsqaUBKTNV-1">
          <mxGeometry x="674.5" y="2350" width="30" height="30" as="geometry" />
        </mxCell>
        <mxCell id="0bH0IYxI4oXOzt830pxc-85" style="edgeStyle=orthogonalEdgeStyle;rounded=0;orthogonalLoop=1;jettySize=auto;html=1;exitX=0;exitY=0.5;exitDx=0;exitDy=0;exitPerimeter=0;" edge="1" parent="WIyWlLk6GJQsqaUBKTNV-1" source="0bH0IYxI4oXOzt830pxc-80" target="0bH0IYxI4oXOzt830pxc-82">
          <mxGeometry relative="1" as="geometry" />
        </mxCell>
        <mxCell id="0bH0IYxI4oXOzt830pxc-89" style="edgeStyle=orthogonalEdgeStyle;rounded=0;orthogonalLoop=1;jettySize=auto;html=1;exitX=0.5;exitY=1;exitDx=0;exitDy=0;exitPerimeter=0;entryX=0.5;entryY=0;entryDx=0;entryDy=0;entryPerimeter=0;" edge="1" parent="WIyWlLk6GJQsqaUBKTNV-1" source="0bH0IYxI4oXOzt830pxc-80" target="0bH0IYxI4oXOzt830pxc-87">
          <mxGeometry relative="1" as="geometry" />
        </mxCell>
        <mxCell id="0bH0IYxI4oXOzt830pxc-80" value="opcion == 2" style="strokeWidth=2;html=1;shape=mxgraph.flowchart.decision;whiteSpace=wrap;" vertex="1" parent="WIyWlLk6GJQsqaUBKTNV-1">
          <mxGeometry x="220" y="960" width="100" height="100" as="geometry" />
        </mxCell>
        <mxCell id="0bH0IYxI4oXOzt830pxc-102" style="edgeStyle=orthogonalEdgeStyle;rounded=0;orthogonalLoop=1;jettySize=auto;html=1;exitX=0;exitY=0.5;exitDx=0;exitDy=0;" edge="1" parent="WIyWlLk6GJQsqaUBKTNV-1" source="0bH0IYxI4oXOzt830pxc-82">
          <mxGeometry relative="1" as="geometry">
            <mxPoint x="30" y="1010.046511627907" as="targetPoint" />
          </mxGeometry>
        </mxCell>
        <mxCell id="0bH0IYxI4oXOzt830pxc-82" value="departamentos" style="shape=parallelogram;html=1;strokeWidth=2;perimeter=parallelogramPerimeter;whiteSpace=wrap;rounded=1;arcSize=12;size=0.23;" vertex="1" parent="WIyWlLk6GJQsqaUBKTNV-1">
          <mxGeometry x="70" y="980" width="120" height="60" as="geometry" />
        </mxCell>
        <mxCell id="0bH0IYxI4oXOzt830pxc-83" value="si" style="text;html=1;align=center;verticalAlign=middle;resizable=0;points=[];autosize=1;strokeColor=none;fillColor=none;" vertex="1" parent="WIyWlLk6GJQsqaUBKTNV-1">
          <mxGeometry x="200" y="970" width="30" height="30" as="geometry" />
        </mxCell>
        <mxCell id="0bH0IYxI4oXOzt830pxc-84" value="no" style="text;html=1;align=center;verticalAlign=middle;resizable=0;points=[];autosize=1;strokeColor=none;fillColor=none;" vertex="1" parent="WIyWlLk6GJQsqaUBKTNV-1">
          <mxGeometry x="280" y="1040" width="40" height="30" as="geometry" />
        </mxCell>
        <mxCell id="0bH0IYxI4oXOzt830pxc-90" style="edgeStyle=orthogonalEdgeStyle;rounded=0;orthogonalLoop=1;jettySize=auto;html=1;exitX=0.5;exitY=1;exitDx=0;exitDy=0;exitPerimeter=0;entryX=0.5;entryY=0;entryDx=0;entryDy=0;entryPerimeter=0;" edge="1" parent="WIyWlLk6GJQsqaUBKTNV-1" source="0bH0IYxI4oXOzt830pxc-87" target="0bH0IYxI4oXOzt830pxc-88">
          <mxGeometry relative="1" as="geometry" />
        </mxCell>
        <mxCell id="0bH0IYxI4oXOzt830pxc-94" style="edgeStyle=orthogonalEdgeStyle;rounded=0;orthogonalLoop=1;jettySize=auto;html=1;exitX=0;exitY=0.5;exitDx=0;exitDy=0;exitPerimeter=0;" edge="1" parent="WIyWlLk6GJQsqaUBKTNV-1" source="0bH0IYxI4oXOzt830pxc-87" target="0bH0IYxI4oXOzt830pxc-93">
          <mxGeometry relative="1" as="geometry" />
        </mxCell>
        <mxCell id="0bH0IYxI4oXOzt830pxc-87" value="opcion == 3" style="strokeWidth=2;html=1;shape=mxgraph.flowchart.decision;whiteSpace=wrap;" vertex="1" parent="WIyWlLk6GJQsqaUBKTNV-1">
          <mxGeometry x="220" y="1096" width="100" height="100" as="geometry" />
        </mxCell>
        <mxCell id="0bH0IYxI4oXOzt830pxc-96" style="edgeStyle=orthogonalEdgeStyle;rounded=0;orthogonalLoop=1;jettySize=auto;html=1;exitX=0;exitY=0.5;exitDx=0;exitDy=0;exitPerimeter=0;entryX=1;entryY=0.5;entryDx=0;entryDy=0;" edge="1" parent="WIyWlLk6GJQsqaUBKTNV-1" source="0bH0IYxI4oXOzt830pxc-88" target="0bH0IYxI4oXOzt830pxc-95">
          <mxGeometry relative="1" as="geometry" />
        </mxCell>
        <mxCell id="0bH0IYxI4oXOzt830pxc-98" style="edgeStyle=orthogonalEdgeStyle;rounded=0;orthogonalLoop=1;jettySize=auto;html=1;exitX=0.5;exitY=1;exitDx=0;exitDy=0;exitPerimeter=0;entryX=1;entryY=0.75;entryDx=0;entryDy=0;" edge="1" parent="WIyWlLk6GJQsqaUBKTNV-1" source="0bH0IYxI4oXOzt830pxc-88" target="0bH0IYxI4oXOzt830pxc-97">
          <mxGeometry relative="1" as="geometry">
            <Array as="points">
              <mxPoint x="270" y="1417" />
            </Array>
          </mxGeometry>
        </mxCell>
        <mxCell id="0bH0IYxI4oXOzt830pxc-88" value="opcion == 4" style="strokeWidth=2;html=1;shape=mxgraph.flowchart.decision;whiteSpace=wrap;" vertex="1" parent="WIyWlLk6GJQsqaUBKTNV-1">
          <mxGeometry x="220" y="1240" width="100" height="100" as="geometry" />
        </mxCell>
        <mxCell id="0bH0IYxI4oXOzt830pxc-91" value="no" style="text;html=1;align=center;verticalAlign=middle;resizable=0;points=[];autosize=1;strokeColor=none;fillColor=none;" vertex="1" parent="WIyWlLk6GJQsqaUBKTNV-1">
          <mxGeometry x="280" y="1183" width="40" height="30" as="geometry" />
        </mxCell>
        <mxCell id="0bH0IYxI4oXOzt830pxc-92" value="no" style="text;html=1;align=center;verticalAlign=middle;resizable=0;points=[];autosize=1;strokeColor=none;fillColor=none;" vertex="1" parent="WIyWlLk6GJQsqaUBKTNV-1">
          <mxGeometry x="280" y="1330" width="40" height="30" as="geometry" />
        </mxCell>
        <mxCell id="0bH0IYxI4oXOzt830pxc-101" style="edgeStyle=orthogonalEdgeStyle;rounded=0;orthogonalLoop=1;jettySize=auto;html=1;exitX=0;exitY=0.5;exitDx=0;exitDy=0;" edge="1" parent="WIyWlLk6GJQsqaUBKTNV-1" source="0bH0IYxI4oXOzt830pxc-93">
          <mxGeometry relative="1" as="geometry">
            <mxPoint x="30" y="1145.860465116279" as="targetPoint" />
          </mxGeometry>
        </mxCell>
        <mxCell id="0bH0IYxI4oXOzt830pxc-93" value="pisos" style="shape=parallelogram;html=1;strokeWidth=2;perimeter=parallelogramPerimeter;whiteSpace=wrap;rounded=1;arcSize=12;size=0.23;" vertex="1" parent="WIyWlLk6GJQsqaUBKTNV-1">
          <mxGeometry x="70" y="1116" width="120" height="60" as="geometry" />
        </mxCell>
        <mxCell id="0bH0IYxI4oXOzt830pxc-100" style="edgeStyle=orthogonalEdgeStyle;rounded=0;orthogonalLoop=1;jettySize=auto;html=1;exitX=0;exitY=0.5;exitDx=0;exitDy=0;" edge="1" parent="WIyWlLk6GJQsqaUBKTNV-1" source="0bH0IYxI4oXOzt830pxc-95">
          <mxGeometry relative="1" as="geometry">
            <mxPoint x="30" y="1290.046511627907" as="targetPoint" />
          </mxGeometry>
        </mxCell>
        <mxCell id="0bH0IYxI4oXOzt830pxc-95" value="edificios" style="shape=parallelogram;html=1;strokeWidth=2;perimeter=parallelogramPerimeter;whiteSpace=wrap;rounded=1;arcSize=12;size=0.23;" vertex="1" parent="WIyWlLk6GJQsqaUBKTNV-1">
          <mxGeometry x="60" y="1260" width="120" height="60" as="geometry" />
        </mxCell>
        <mxCell id="0bH0IYxI4oXOzt830pxc-99" style="edgeStyle=orthogonalEdgeStyle;rounded=0;orthogonalLoop=1;jettySize=auto;html=1;exitX=0;exitY=0.5;exitDx=0;exitDy=0;" edge="1" parent="WIyWlLk6GJQsqaUBKTNV-1" source="0bH0IYxI4oXOzt830pxc-97">
          <mxGeometry relative="1" as="geometry">
            <mxPoint x="270" y="450" as="targetPoint" />
            <Array as="points">
              <mxPoint x="30" y="1405" />
              <mxPoint x="30" y="450" />
            </Array>
          </mxGeometry>
        </mxCell>
        <mxCell id="0bH0IYxI4oXOzt830pxc-97" value="ingrese una &lt;br&gt;opción válida" style="shape=parallelogram;html=1;strokeWidth=2;perimeter=parallelogramPerimeter;whiteSpace=wrap;rounded=1;arcSize=12;size=0.23;" vertex="1" parent="WIyWlLk6GJQsqaUBKTNV-1">
          <mxGeometry x="115" y="1370" width="135" height="70" as="geometry" />
        </mxCell>
        <mxCell id="0bH0IYxI4oXOzt830pxc-104" value="si" style="text;html=1;align=center;verticalAlign=middle;resizable=0;points=[];autosize=1;strokeColor=none;fillColor=none;" vertex="1" parent="WIyWlLk6GJQsqaUBKTNV-1">
          <mxGeometry x="200" y="1110" width="30" height="30" as="geometry" />
        </mxCell>
        <mxCell id="0bH0IYxI4oXOzt830pxc-105" value="si" style="text;html=1;align=center;verticalAlign=middle;resizable=0;points=[];autosize=1;strokeColor=none;fillColor=none;" vertex="1" parent="WIyWlLk6GJQsqaUBKTNV-1">
          <mxGeometry x="200" y="1260" width="30" height="30" as="geometry" />
        </mxCell>
      </root>
    </mxGraphModel>
  </diagram>
</mxfile>
